<?xml version="1.0" encoding="UTF-8"?>
<svg id="Calque_1" xmlns="http://www.w3.org/2000/svg" version="1.1" viewBox="0 0 520 520">
  <!-- Generator: Adobe Illustrator 29.8.1, SVG Export Plug-In . SVG Version: 2.1.1 Build 2)  -->
  <defs>
    <style>
      .st0 {
        font-family: Inter18pt-Medium, 'Inter 18pt';
        font-size: 156.19px;
        font-weight: 500;
      }

      .st1 {
        fill: #395af6;
      }
    </style>
  </defs>
  <g>
    <path d="M165.35,474.55c-25.73,0-48.53-6.57-68.4-19.73-19.87-13.15-35.43-31.83-46.68-56.05-11.26-24.22-16.89-53.07-16.89-86.56s5.68-62.58,17.03-86.7c11.35-24.12,27-42.66,46.97-55.62,19.96-12.96,42.61-19.44,67.97-19.44,18.16,0,33.25,2.98,45.27,8.94,12.01,5.96,21.66,13.1,28.95,21.43,7.28,8.33,13.01,16.28,17.17,23.84h3.12V45.45h61.87v422.87h-60.46v-48.81h-4.25c-4.16,7.94-10.03,16.13-17.6,24.55-7.57,8.42-17.31,15.61-29.23,21.57s-26.87,8.94-44.84,8.94ZM178.69,421.77c17.6,0,32.54-4.63,44.84-13.9,12.3-9.27,21.66-22.14,28.1-38.6,6.42-16.46,9.64-35.57,9.64-57.33s-3.17-41.01-9.51-57.19c-6.34-16.18-15.66-28.81-27.95-37.89-12.3-9.08-27.34-13.62-45.12-13.62s-32.78,4.64-44.98,13.9c-12.2,9.27-21.48,22.04-27.81,38.31-6.34,16.28-9.51,35.1-9.51,56.48s3.17,40.07,9.51,56.62c6.34,16.56,15.7,29.57,28.1,39.03,12.39,9.46,27.29,14.19,44.7,14.19Z"/>
    <path class="st1" d="M445.18,472.85c-11.54,0-21.38-4.02-29.52-12.07-8.14-8.04-12.2-17.83-12.2-29.37s4.07-21.33,12.2-29.37c8.13-8.04,17.97-12.06,29.52-12.06s21.33,4.02,29.37,12.06c8.04,8.04,12.06,17.84,12.06,29.37s-4.02,21.33-12.06,29.37c-8.05,8.04-17.84,12.07-29.37,12.07Z"/>
  </g>
  <text class="st0" transform="translate(-148.84 315.39)"><tspan x="0" y="0">d</tspan><tspan class="st1" x="95.1" y="0">.</tspan></text>
</svg>